<svg width="217" height="101" viewBox="0 0 217 101" fill="none" xmlns="http://www.w3.org/2000/svg">
<path d="M43.6111 35.5C42.5663 35.5 41.7222 36.4576 41.7222 37.6429V44.4665C41.7222 44.8415 41.4566 45.1429 41.126 45.1429C40.9135 45.1429 40.7128 45.0156 40.6066 44.8013L37.7733 39.183C33.3993 41.6272 30.3889 46.7366 30.3889 52.6429V56.9286H60.6111V52.4821C60.558 46.6429 57.5594 41.6071 53.2267 39.183L50.3934 44.8013C50.2872 45.0156 50.0865 45.1429 49.874 45.1429C49.5434 45.1429 49.2778 44.8415 49.2778 44.4665V37.6429C49.2778 36.4576 48.4337 35.5 47.3889 35.5H43.6111ZM29.4799 59.0714C28.9368 59.0714 28.5 59.567 28.5 60.183C28.5 60.4978 28.6181 60.7991 28.8424 60.9799C30.1233 62.0446 35.0993 65.5 45.5 65.5C55.9007 65.5 60.8767 62.0446 62.1576 60.9799C62.3819 60.7924 62.5 60.4978 62.5 60.183C62.5 59.567 62.0632 59.0714 61.5201 59.0714H29.4799Z" fill="#15803D"/>
<path d="M75.22 61L82.96 39.4H86.92L79.81 61H75.22ZM91.06 61L83.98 39.4H88.12L95.86 61H91.06ZM79.3 52.63H91.42V56.23H79.3V52.63ZM98.0898 61V39.4H102.71V61H98.0898Z" fill="#15803D"/>
<path d="M117.03 61L110.94 39.4H115.62L120.66 59.17H119.19L123.69 39.4H128.94L133.38 59.17H131.94L137.01 39.4H141.48L135.39 61H130.23L125.64 41.62H126.84L122.19 61H117.03ZM143.998 61V39.4H148.618V61H143.998ZM160.495 61.27C157.695 61.27 155.455 60.65 153.775 59.41C152.095 58.15 151.115 56.38 150.835 54.1H155.275C155.415 55.26 155.975 56.18 156.955 56.86C157.935 57.52 159.185 57.85 160.705 57.85C161.945 57.85 162.895 57.63 163.555 57.19C164.235 56.75 164.575 56.16 164.575 55.42C164.575 54.72 164.375 54.16 163.975 53.74C163.575 53.3 162.885 52.95 161.905 52.69L157.885 51.58C155.825 51 154.315 50.21 153.355 49.21C152.415 48.19 151.945 46.92 151.945 45.4C151.945 44.1 152.275 42.98 152.935 42.04C153.615 41.08 154.565 40.35 155.785 39.85C157.005 39.33 158.435 39.07 160.075 39.07C162.595 39.07 164.605 39.67 166.105 40.87C167.605 42.05 168.455 43.62 168.655 45.58H164.215C164.015 44.52 163.525 43.74 162.745 43.24C161.985 42.74 161.005 42.49 159.805 42.49C158.765 42.49 157.935 42.69 157.315 43.09C156.695 43.49 156.385 44.03 156.385 44.71C156.385 45.23 156.555 45.71 156.895 46.15C157.235 46.57 157.945 46.93 159.025 47.23L163.045 48.34C165.165 48.92 166.685 49.72 167.605 50.74C168.545 51.74 169.015 53.01 169.015 54.55C169.015 56.71 168.265 58.37 166.765 59.53C165.265 60.69 163.175 61.27 160.495 61.27ZM171.186 61V39.4H175.806V61H171.186ZM173.346 61V57.46H187.266V61H173.346ZM173.346 51.7V48.22H186.216V51.7H173.346ZM173.346 42.94V39.4H186.906V42.94H173.346Z" fill="#FB8716"/>
</svg>
